<?xml version="1.0" encoding="UTF-8"?>
<svg id="Calque_2" xmlns="http://www.w3.org/2000/svg" viewBox="0 0 335.95 98.5">
  <defs>
    <style>
      .cls-1 {
        fill: #fff;
      }

      .cls-2 {
        stroke: #fff;
        stroke-miterlimit: 10;
        stroke-width: 5px;
      }

      .cls-2, .cls-3 {
        fill: #e71d73;
      }
    </style>
  </defs>
  <g id="Calque_1-2" data-name="Calque_1">
    <g>
      <path class="cls-2" d="M2.5,34.29c0,26.41,21.83,40.49,37.81,53.09,5.64,4.45,11.07,8.63,16.5,8.63s10.86-4.19,16.5-8.63c15.98-12.6,37.81-26.67,37.81-53.09S81.25-10.86,56.81,14.53C32.37-10.86,2.5,7.87,2.5,34.29Z"/>
      <path class="cls-1" d="M74.46,57.32c-.78-.91-2.76-2.36-3.74-3.12-.77-.63-9.01-7.43-10.24-8.45-1.02-1-1.8-2.93-1.48-4.49.14-.65.46-1.38.78-2.07.32-.69.66-1.3.85-1.65.2-.35.21-.4.45-.2.95.73,2.69,1.74,3.61,2.25,1.01.59,2.51.35,3.28-.48.87-.77.4-2.35.81-3.28.16-.28.45-.45.65-.6.52-.4.02-1.36.06-1.93.01-.32.19-.44.46-.53,2.31-.5-.01-3.2-.42-4.07-.28-.86-.13-1.94-.2-2.85-.09-1.04.88-1.58,1.02-2.53.24-2.45-.3-3.41-.51-4.23-.87-2.04-2.98-3.03-5.59-3.71-1.23-.34-2.2-.4-3.5-.49-6.4-.24-9.83-.43-13.05,3.18-3.09,3.5-2.8,8.81-3.26,13.07-.06,1.47-.33,2.86-1.05,4.25-.31.59-.67,1.03-1.14,1.44-1.37,1.26-5.06,4.87-6.99,6.76-1.97,1.95-3.86,4.18-3.95,7.06-.21,3.59.75,7.02,3.8,9.1.63.5,1.34,1.14,2.13,1.33.18.02.29-.04.32-.18,0-.85-.83-1.76-1-2.7-.6-1.77-.78-3.72.14-5.25.23.44.1,1.46.32,2.07.3,1.31,1.46,2.16,2.34,3.23,1.24,1.52,2.52,2.06,2.18,3.81-.75,2.22-2.01,5.74-2.82,8.05-.61,1.62-1.02,3.38-.45,5.11.56,1.11,1.06,1.19,2.48,2.79,1.28,1.33,2.65,2.73,3.78,3.9.54.52.77,1.1.39,1.94-.47,1.03-1.7,2.08-1.56,3.22.85,1.65,7.45,7.5,10.54,9.72.27.17.37.27.63.27,1.11-.06,8.18-2.99,10.81-4.12.66-.29,1.14-.9,1.25-1.58.71-3.18,2.7-12.22,3.72-17.46.59-2.99.67-3.48.7-5.95.09-1.53,1.46-1.89,2.47-3.01,2.35-1.93,2.83-5.22,1.03-7.55l-.07-.09ZM54.18,74.87c-2.76,5.78-7.07,5.99-8.82-.71-.36-1.97.39-3.69,1.08-5.59,1.22-3.1,2.95-7.52,3.94-9.73.32-.55.57-1.46,1.23-1.43.99.71,1.17,2.16,1.7,3.39,1.45,4.3,2.98,9.67.96,13.88l-.09.19Z"/>
    </g>
    <rect class="cls-3" x="121.17" y="23.74" width="115.59" height="52.09" rx="26.04" ry="26.04"/>
    <g>
      <path class="cls-1" d="M139.36,59.89l1.67-8.31.52,2.94-5.94-14.83h4.67l4.53,11.34-2.83.03,9.12-11.37h4.85l-11.83,14.86,1.62-2.97-1.67,8.31h-4.7Z"/>
      <path class="cls-1" d="M149.98,59.89l13.04-20.2h4.62l4.99,20.2h-4.67l-3.95-17.89h1.88l-10.91,17.89h-4.99ZM155.35,55.56l1.93-3.55h10.42l.55,3.55h-12.9Z"/>
      <path class="cls-1" d="M174.74,59.89l4.04-20.2h3.81l5.74,14.28h-2.02l11.17-14.28h4.04l-4.01,20.2h-4.39l2.71-13.53h.87l-8.92,11.37h-2.08l-4.76-11.4.87.09-2.68,13.48h-4.39Z"/>
      <path class="cls-1" d="M212.77,60.23c-2.04,0-3.79-.37-5.27-1.11-1.47-.74-2.6-1.77-3.39-3.09s-1.18-2.84-1.18-4.57.3-3.31.89-4.79c.6-1.48,1.45-2.77,2.55-3.85,1.11-1.09,2.42-1.94,3.95-2.55,1.53-.62,3.23-.92,5.09-.92,2.06,0,3.82.37,5.28,1.11,1.46.74,2.59,1.77,3.38,3.09.79,1.32,1.18,2.84,1.18,4.57s-.3,3.31-.9,4.79-1.45,2.77-2.55,3.85c-1.11,1.09-2.42,1.94-3.95,2.55s-3.23.92-5.09.92ZM213.17,56.28c1.15,0,2.18-.21,3.09-.62.9-.41,1.67-.99,2.31-1.73.63-.74,1.12-1.58,1.46-2.53.34-.94.5-1.95.5-3.03,0-1-.21-1.88-.64-2.64-.42-.76-1.05-1.36-1.88-1.79-.83-.43-1.83-.65-3-.65s-2.13.21-3.04.62c-.91.41-1.69.99-2.34,1.73s-1.14,1.58-1.47,2.52c-.34.94-.5,1.95-.5,3.03,0,1,.21,1.88.63,2.64.42.76,1.05,1.36,1.88,1.79.83.43,1.83.65,3,.65Z"/>
    </g>
    <g>
      <path class="cls-3" d="M243.1,61.98l.74-3.7,18.75-18.4.49,2.08h-15.62l.95-4.65h20.73l-.74,3.7-18.72,18.4-.53-2.08h16.46l-.92,4.65h-21.61Z"/>
      <path class="cls-3" d="M277.72,62.27c-1.93,0-3.61-.35-5.04-1.06-1.43-.7-2.55-1.7-3.35-2.98-.8-1.28-1.2-2.75-1.2-4.42,0-2.11.49-4.01,1.48-5.68.99-1.67,2.34-2.98,4.07-3.95,1.73-.96,3.7-1.45,5.91-1.45,1.95,0,3.64.35,5.08,1.06,1.43.7,2.54,1.69,3.31,2.96.78,1.27,1.16,2.75,1.16,4.44,0,2.12-.49,4.01-1.48,5.68-.99,1.67-2.33,2.98-4.04,3.95-1.7.96-3.67,1.45-5.91,1.45ZM278.04,57.75c1.08,0,2.04-.26,2.87-.79.83-.53,1.49-1.26,1.96-2.2.47-.94.71-2.03.71-3.28s-.37-2.26-1.11-3.03c-.74-.78-1.8-1.16-3.19-1.16-1.06,0-2.01.26-2.86.78-.85.52-1.51,1.25-1.99,2.19-.48.94-.72,2.03-.72,3.28s.38,2.32,1.14,3.08,1.83,1.15,3.19,1.15Z"/>
      <path class="cls-3" d="M305.67,42.74c1.6,0,2.96.33,4.09,1,1.13.67,1.93,1.65,2.4,2.94.47,1.29.52,2.89.14,4.79l-2.12,10.5h-5.5l2.01-10.15c.31-1.39.21-2.46-.3-3.21-.5-.75-1.43-1.13-2.77-1.13-1.41,0-2.57.4-3.49,1.2s-1.55,2.03-1.9,3.7l-1.9,9.59h-5.5l3.74-18.96h5.25l-1.06,5.36-.81-1.59c.92-1.39,2.05-2.41,3.4-3.07,1.35-.66,2.79-.99,4.32-.99Z"/>
      <path class="cls-3" d="M325.41,62.27c-1.95,0-3.65-.35-5.11-1.06s-2.58-1.69-3.38-2.96c-.8-1.27-1.2-2.76-1.2-4.48,0-2.12.48-4,1.43-5.66.95-1.66,2.27-2.97,3.95-3.93,1.68-.96,3.61-1.45,5.8-1.45,1.86,0,3.46.35,4.81,1.04,1.35.69,2.4,1.66,3.14,2.91.74,1.25,1.11,2.71,1.11,4.41,0,.49-.04.99-.11,1.48-.07.49-.15.96-.25,1.41h-15.69l.6-3.21h12.51l-2.29.99c.21-1.06.16-1.94-.16-2.66-.32-.72-.81-1.27-1.48-1.66-.67-.39-1.49-.58-2.45-.58-1.2,0-2.22.29-3.05.86-.83.58-1.47,1.37-1.9,2.38s-.65,2.16-.65,3.45c0,1.43.41,2.51,1.22,3.23.81.72,2.05,1.08,3.72,1.08.96,0,1.89-.15,2.78-.46.89-.3,1.66-.73,2.29-1.27l2.29,3.6c-1.1.87-2.34,1.51-3.72,1.92-1.38.41-2.78.62-4.21.62Z"/>
    </g>
  </g>
</svg>