<svg width="236" height="49" viewBox="0 0 236 49" fill="none" xmlns="http://www.w3.org/2000/svg">
<rect x="69" y="4" width="167" height="39" rx="5" fill="#282828"/>
<rect x="165" y="4" width="71" height="39" rx="5" fill="#FF9102"/>
<path d="M94.31 15.61L92.6 18.97C92.48 19.23 92.36 19.5 92.24 19.78C92.14 20.04 92.03 20.3 91.91 20.56C91.73 21.04 91.55 21.48 91.37 21.88C91.19 22.26 91.01 22.54 90.83 22.72C90.79 22.76 90.77 22.8 90.77 22.84C90.69 22.98 90.61 23.11 90.53 23.23C90.45 23.35 90.37 23.45 90.29 23.53L90.11 23.92C90.07 23.96 90.03 24.04 89.99 24.16L89.9 24.34C89.9 24.36 89.89 24.37 89.87 24.37C89.87 24.37 89.87 24.38 89.87 24.4C89.77 24.64 89.66 24.87 89.54 25.09C89.42 25.29 89.31 25.48 89.21 25.66C89.19 25.74 89.15 25.82 89.09 25.9C89.05 25.98 89.02 26.04 89 26.08V26.14C88.98 26.18 88.95 26.23 88.91 26.29C88.89 26.35 88.86 26.4 88.82 26.44L88.4 27.28V32.86C88.44 33.02 88.44 33.16 88.4 33.28C88.4 33.34 88.38 33.41 88.34 33.49L88.25 33.67C88.41 33.51 88.48 33.44 88.46 33.46C88.46 33.48 88.41 33.54 88.31 33.64C88.23 33.72 88.15 33.79 88.07 33.85C88.05 33.85 88.02 33.87 87.98 33.91C87.94 33.95 87.92 33.97 87.92 33.97L87.74 34.24C87.72 34.34 87.65 34.45 87.53 34.57L87.44 34.66C87.44 34.66 87.43 34.66 87.41 34.66C87.41 34.66 87.41 34.67 87.41 34.69C87.39 34.69 87.38 34.69 87.38 34.69C87.38 34.71 87.37 34.72 87.35 34.72C87.33 34.8 87.31 34.88 87.29 34.96C87.29 35.06 87.27 35.15 87.23 35.23C87.21 35.25 87.18 35.31 87.14 35.41C87.12 35.51 87.07 35.52 86.99 35.44C86.93 35.38 86.88 35.28 86.84 35.14C86.82 35.02 86.79 34.93 86.75 34.87C86.71 34.81 86.65 34.74 86.57 34.66C86.49 34.62 86.42 34.55 86.36 34.45C86.3 34.37 86.25 34.32 86.21 34.3C86.21 34.4 86.19 34.47 86.15 34.51C86.13 34.53 86.11 34.52 86.09 34.48C86.07 34.44 86.05 34.41 86.03 34.39L85.91 34.21C85.89 34.25 85.86 34.29 85.82 34.33C85.8 34.37 85.78 34.41 85.76 34.45C85.74 34.51 85.71 34.57 85.67 34.63C85.63 34.71 85.58 34.79 85.52 34.87C85.48 34.97 85.42 35.07 85.34 35.17C85.3 35.23 85.25 35.27 85.19 35.29C85.15 35.33 85.11 35.37 85.07 35.41C85.05 35.51 85.03 35.61 85.01 35.71C84.99 35.83 84.97 35.94 84.95 36.04C84.93 36.12 84.91 36.2 84.89 36.28C84.89 36.38 84.87 36.48 84.83 36.58C84.81 36.66 84.79 36.78 84.77 36.94C84.75 37.1 84.72 37.14 84.68 37.06C84.46 36.84 84.36 36.74 84.38 36.76C84.4 36.78 84.46 36.86 84.56 37C84.66 37.16 84.72 37.31 84.74 37.45C84.76 37.61 84.66 37.7 84.44 37.72C84.24 37.72 84.14 37.61 84.14 37.39C84.16 37.17 84.2 36.91 84.26 36.61C84.34 36.31 84.36 36.06 84.32 35.86C84.32 35.84 84.31 35.83 84.29 35.83C84.27 35.85 84.25 35.85 84.23 35.83C84.17 35.83 84.13 35.82 84.11 35.8C83.95 35.76 83.84 35.72 83.78 35.68C83.72 35.64 83.65 35.58 83.57 35.5C83.55 35.48 83.53 35.44 83.51 35.38C83.49 35.34 83.47 35.34 83.45 35.38C83.43 35.54 83.43 35.77 83.45 36.07C83.47 36.37 83.48 36.61 83.48 36.79C83.5 36.99 83.46 37.02 83.36 36.88C83.2 36.62 83.15 36.32 83.21 35.98C83.27 35.66 83.28 35.34 83.24 35.02C83.24 34.98 83.23 35 83.21 35.08C83.21 35.18 83.2 35.27 83.18 35.35C83.18 35.45 83.17 35.48 83.15 35.44C83.09 35.3 83.06 35.15 83.06 34.99C83.08 34.85 83.07 34.71 83.03 34.57C82.97 34.53 82.91 34.48 82.85 34.42C82.81 34.38 82.77 34.34 82.73 34.3C82.73 34.34 82.72 34.38 82.7 34.42C82.7 34.46 82.69 34.5 82.67 34.54H82.43C82.21 34.52 82.04 34.43 81.92 34.27C81.9 34.35 81.89 34.42 81.89 34.48C81.89 34.56 81.87 34.64 81.83 34.72C81.79 34.76 81.75 34.74 81.71 34.66C81.67 34.58 81.65 34.51 81.65 34.45L81.44 33.97C81.4 33.95 81.36 33.93 81.32 33.91C81.28 33.87 81.24 33.84 81.2 33.82C81 33.66 80.9 33.45 80.9 33.19V27.28L80.66 26.83L80.57 26.65C80.55 26.61 80.53 26.57 80.51 26.53C80.49 26.49 80.47 26.45 80.45 26.41C80.43 26.39 80.39 26.32 80.33 26.2C80.33 26.16 80.31 26.12 80.27 26.08L79.82 25.18C79.74 25.08 79.65 24.95 79.55 24.79C79.45 24.61 79.34 24.41 79.22 24.19C79.18 24.11 79.14 24.03 79.1 23.95C79.06 23.87 79.02 23.79 78.98 23.71C78.76 23.29 78.52 22.8 78.26 22.24C78 21.66 77.73 21.07 77.45 20.47L75.38 16.39C75.3 16.23 75.22 16.07 75.14 15.91C75.06 15.73 74.97 15.55 74.87 15.37L74.51 14.65C74.49 14.59 74.46 14.53 74.42 14.47C74.38 14.39 74.34 14.32 74.3 14.26C74.3 14.26 74.28 14.21 74.24 14.11C74.2 14.01 74.17 13.95 74.15 13.93C74.11 13.85 74.09 13.76 74.09 13.66C74.09 13.48 74.16 13.32 74.3 13.18C74.36 13.12 74.41 13.08 74.45 13.06C74.51 13.04 74.56 13.03 74.6 13.03C74.64 13.01 74.71 13 74.81 13H79.55C79.69 13 79.83 13 79.97 13C80.13 12.98 80.28 12.98 80.42 13C80.58 13 80.73 13.03 80.87 13.09C81.01 13.13 81.13 13.19 81.23 13.27C81.35 13.35 81.47 13.47 81.59 13.63C81.75 13.89 81.89 14.16 82.01 14.44C82.13 14.7 82.26 14.96 82.4 15.22C82.52 15.42 82.63 15.64 82.73 15.88C82.85 16.12 82.97 16.36 83.09 16.6L84.29 19.03C84.33 19.07 84.36 19.12 84.38 19.18C84.4 19.22 84.42 19.27 84.44 19.33C84.44 19.37 84.46 19.41 84.5 19.45C84.52 19.47 84.53 19.5 84.53 19.54C84.53 19.56 84.54 19.58 84.56 19.6L84.65 19.69L84.71 19.66C84.71 19.64 84.72 19.62 84.74 19.6C84.76 19.58 84.77 19.56 84.77 19.54C84.77 19.5 84.78 19.47 84.8 19.45C84.9 19.29 84.98 19.13 85.04 18.97L85.52 18.01C85.68 17.69 85.84 17.37 86 17.05C86.16 16.73 86.31 16.41 86.45 16.09L87.38 14.29C87.46 14.13 87.53 13.98 87.59 13.84C87.67 13.68 87.77 13.54 87.89 13.42C87.99 13.32 88.12 13.23 88.28 13.15C88.44 13.05 88.64 13 88.88 13C88.96 12.98 89.09 12.98 89.27 13C89.45 13 89.62 13 89.78 13H94.07C94.17 13 94.27 13 94.37 13C94.49 12.98 94.6 12.98 94.7 13C94.78 13.02 94.86 13.06 94.94 13.12C95.06 13.2 95.14 13.32 95.18 13.48C95.2 13.52 95.21 13.58 95.21 13.66C95.21 13.76 95.19 13.85 95.15 13.93C95.13 14.01 95.09 14.1 95.03 14.2C94.97 14.28 94.92 14.37 94.88 14.47C94.86 14.49 94.82 14.56 94.76 14.68C94.68 14.84 94.61 15 94.55 15.16C94.49 15.32 94.41 15.47 94.31 15.61ZM109.801 32.92C109.801 33 109.791 33.06 109.771 33.1C109.771 33.36 109.721 33.55 109.621 33.67C109.601 33.71 109.561 33.76 109.501 33.82C109.441 33.86 109.381 33.9 109.321 33.94C109.101 34.16 109.001 34.34 109.021 34.48C109.041 34.62 109.101 34.74 109.201 34.84C109.301 34.94 109.361 35.06 109.381 35.2C109.401 35.34 109.301 35.52 109.081 35.74C109.061 35.8 109.041 35.86 109.021 35.92C109.021 36 109.001 36.06 108.961 36.1C108.941 36.12 108.901 36.07 108.841 35.95C108.821 35.85 108.801 35.74 108.781 35.62C108.761 35.5 108.741 35.38 108.721 35.26C108.701 34.92 108.691 34.72 108.691 34.66C108.711 34.62 108.671 34.49 108.571 34.27L108.451 34.39C108.391 34.45 108.331 34.5 108.271 34.54C108.231 34.58 108.181 34.64 108.121 34.72C108.041 34.84 107.961 34.96 107.881 35.08C107.801 35.2 107.721 35.32 107.641 35.44C107.621 35.46 107.591 35.51 107.551 35.59C107.511 35.67 107.471 35.72 107.431 35.74C107.331 35.78 107.251 35.73 107.191 35.59C107.131 35.45 107.081 35.36 107.041 35.32C107.021 35.26 107.001 35.2 106.981 35.14C106.981 35.08 106.961 35.02 106.921 34.96C106.881 34.94 106.821 34.89 106.741 34.81C106.701 34.77 106.671 34.73 106.651 34.69L106.351 34.33L106.201 34.18C106.161 34.2 106.111 34.19 106.051 34.15C105.991 34.11 105.941 34.08 105.901 34.06C105.801 34.16 105.751 34.22 105.751 34.24C105.591 34.38 105.451 34.54 105.331 34.72C105.231 34.92 105.131 35.12 105.031 35.32C105.011 35.36 104.971 35.41 104.911 35.47C104.871 35.53 104.821 35.58 104.761 35.62C104.721 35.66 104.691 35.68 104.671 35.68C104.651 35.8 104.631 35.92 104.611 36.04C104.611 36.18 104.591 36.31 104.551 36.43C104.531 36.45 104.501 36.44 104.461 36.4C104.441 36.38 104.431 36.36 104.431 36.34C104.391 36.18 104.371 36.06 104.371 35.98C104.391 35.92 104.361 35.77 104.281 35.53C104.261 35.53 104.241 35.52 104.221 35.5C104.221 35.48 104.201 35.45 104.161 35.41C104.161 35.37 104.141 35.34 104.101 35.32C104.081 35.3 104.071 35.29 104.071 35.29L103.801 34.84L103.441 34.27C103.421 34.19 103.391 34.11 103.351 34.03C103.311 33.97 103.271 33.91 103.231 33.85L103.201 33.82C103.121 33.76 103.041 33.66 102.961 33.52C102.961 33.5 102.951 33.49 102.931 33.49C102.931 33.47 102.931 33.45 102.931 33.43C102.911 33.33 102.901 33.22 102.901 33.1C102.901 32.96 102.901 32.79 102.901 32.59V32.35C102.861 32.39 102.831 32.43 102.811 32.47L102.721 32.56C102.541 32.78 102.341 32.98 102.121 33.16C102.041 33.36 101.981 33.57 101.941 33.79C101.901 33.99 101.831 34.19 101.731 34.39C101.711 34.47 101.671 34.55 101.611 34.63C101.571 34.73 101.511 34.81 101.431 34.87C101.411 34.89 101.351 34.91 101.251 34.93C101.171 34.95 101.121 34.95 101.101 34.93C101.081 34.87 101.071 34.8 101.071 34.72C101.071 34.66 101.071 34.6 101.071 34.54C101.051 34.6 101.021 34.65 100.981 34.69C100.961 34.75 100.931 34.8 100.891 34.84C100.871 34.88 100.841 34.91 100.801 34.93C100.761 34.97 100.721 35.01 100.681 35.05C100.621 35.37 100.571 35.67 100.531 35.95C100.511 36.25 100.481 36.56 100.441 36.88C100.421 36.96 100.401 37.04 100.381 37.12C100.361 37.22 100.331 37.32 100.291 37.42C100.291 37.52 100.261 37.6 100.201 37.66C100.181 37.68 100.141 37.66 100.081 37.6C100.061 37.56 100.041 37.51 100.021 37.45C100.001 37.41 99.9805 37.37 99.9605 37.33C99.9405 37.23 99.9005 37.06 99.8405 36.82C99.7805 36.6 99.7305 36.45 99.6905 36.37C99.6705 36.29 99.6505 36.2 99.6305 36.1C99.6105 36.02 99.5905 35.94 99.5705 35.86C99.5505 35.8 99.5305 35.73 99.5105 35.65C99.5105 35.59 99.4905 35.52 99.4505 35.44L99.3605 35.35C99.3005 35.27 99.2405 35.18 99.1805 35.08C99.1205 35 99.0605 34.92 99.0005 34.84C98.9805 34.78 98.9505 34.72 98.9105 34.66C98.8705 34.62 98.8305 34.56 98.7905 34.48C98.7705 34.44 98.7505 34.4 98.7305 34.36C98.7105 34.34 98.6805 34.32 98.6405 34.3H98.4005C97.1005 34.26 95.9805 33.95 95.0405 33.37C94.1205 32.79 93.4805 32.05 93.1205 31.15C93.1005 31.09 93.0805 31.03 93.0605 30.97C93.0405 30.91 93.0205 30.85 93.0005 30.79C93.0005 30.77 92.9905 30.75 92.9705 30.73C92.9705 30.71 92.9705 30.69 92.9705 30.67C92.9505 30.57 92.9305 30.48 92.9105 30.4C92.8905 30.3 92.8705 30.21 92.8505 30.13C92.8305 30.01 92.8205 29.89 92.8205 29.77C92.8205 29.63 92.8205 29.5 92.8205 29.38C92.8205 29.3 92.8205 29.23 92.8205 29.17C92.8405 29.11 92.8505 29.04 92.8505 28.96L92.8805 28.75C92.9405 28.43 93.0305 28.14 93.1505 27.88C93.4305 27.24 93.8605 26.69 94.4405 26.23C94.5605 26.13 94.6805 26.04 94.8005 25.96C94.9205 25.88 95.0505 25.8 95.1905 25.72L95.5805 25.51C95.6205 25.47 95.6705 25.43 95.7305 25.39C95.7905 25.35 95.8505 25.32 95.9105 25.3C95.9505 25.26 96.0005 25.23 96.0605 25.21C96.1205 25.19 96.1805 25.17 96.2405 25.15C96.4605 25.05 96.6805 24.97 96.9005 24.91C97.1405 24.85 97.3805 24.79 97.6205 24.73C97.9005 24.65 98.1805 24.58 98.4605 24.52C98.7605 24.46 99.0705 24.4 99.3905 24.34L100.111 24.22C100.391 24.18 100.661 24.14 100.921 24.1C101.201 24.04 101.481 23.99 101.761 23.95C101.841 23.95 101.891 23.94 101.911 23.92L102.571 23.8V23.32C102.571 23.4 102.561 23.38 102.541 23.26C102.541 23.14 102.541 23.07 102.541 23.05C102.541 23.07 102.531 23.05 102.511 22.99C102.511 22.91 102.511 22.88 102.511 22.9C102.511 22.88 102.501 22.86 102.481 22.84C102.481 22.82 102.481 22.8 102.481 22.78C102.441 22.66 102.361 22.54 102.241 22.42C102.221 22.42 102.211 22.42 102.211 22.42C102.211 22.4 102.191 22.39 102.151 22.39C102.111 22.41 102.061 22.45 102.001 22.51C101.961 22.57 101.931 22.62 101.911 22.66C101.851 22.76 101.781 22.89 101.701 23.05C101.621 23.19 101.521 23.29 101.401 23.35C101.261 23.43 101.131 23.38 101.011 23.2C100.891 23.02 100.791 22.89 100.711 22.81C100.671 22.77 100.641 22.75 100.621 22.75L100.351 23.02C100.291 23.06 100.231 23.1 100.171 23.14C100.111 23.18 100.051 23.22 99.9905 23.26C99.8705 23.32 99.7405 23.37 99.6005 23.41C99.4805 23.43 99.3605 23.46 99.2405 23.5C99.0005 23.58 98.7605 23.67 98.5205 23.77C98.3005 23.85 98.0705 23.91 97.8305 23.95C97.5305 23.99 97.2505 23.93 96.9905 23.77C96.7305 23.59 96.4505 23.51 96.1505 23.53C95.8705 23.53 95.5905 23.52 95.3105 23.5C95.0505 23.48 94.7805 23.43 94.5005 23.35C94.4205 23.31 94.3705 23.29 94.3505 23.29C94.3305 23.29 94.3105 23.3 94.2905 23.32C94.2705 23.34 94.2505 23.34 94.2305 23.32C94.2105 23.3 94.1905 23.28 94.1705 23.26C94.1705 23.24 94.1505 23.22 94.1105 23.2C94.0905 23.16 94.0605 23.12 94.0205 23.08C93.9805 23.04 93.9605 23.02 93.9605 23.02C93.9405 23 93.9105 22.95 93.8705 22.87C93.8305 22.75 93.8205 22.63 93.8405 22.51C93.8605 22.37 93.8905 22.24 93.9305 22.12C93.9505 22.06 93.9705 22 93.9905 21.94C94.0105 21.88 94.0305 21.81 94.0505 21.73C94.2505 21.35 94.4705 21.02 94.7105 20.74C94.9305 20.46 95.1905 20.19 95.4905 19.93C95.8105 19.67 96.1705 19.44 96.5705 19.24C96.7305 19.1 96.9205 18.98 97.1405 18.88C97.3405 18.78 97.5505 18.7 97.7705 18.64C98.0105 18.58 98.2505 18.53 98.4905 18.49C98.9505 18.37 99.4505 18.28 99.9905 18.22C100.531 18.14 101.121 18.1 101.761 18.1H102.361C102.481 18.1 102.591 18.1 102.691 18.1C102.791 18.1 102.871 18.11 102.931 18.13L103.141 18.16H103.291C103.551 18.16 103.741 18.19 103.861 18.25C104.201 18.27 104.541 18.33 104.881 18.43C105.121 18.47 105.351 18.52 105.571 18.58C105.811 18.64 106.021 18.72 106.201 18.82C106.461 18.9 106.711 19.02 106.951 19.18C107.211 19.34 107.441 19.5 107.641 19.66C107.641 19.68 107.641 19.69 107.641 19.69C107.661 19.69 107.671 19.69 107.671 19.69C107.731 19.73 107.781 19.78 107.821 19.84C107.881 19.88 107.931 19.92 107.971 19.96C108.931 20.82 109.501 21.97 109.681 23.41C109.701 23.43 109.711 23.46 109.711 23.5C109.771 23.92 109.791 24.34 109.771 24.76C109.771 25.18 109.771 25.6 109.771 26.02V32.23C109.771 32.33 109.771 32.44 109.771 32.56C109.791 32.68 109.801 32.8 109.801 32.92ZM102.661 27.91V27.55C102.661 27.53 102.641 27.53 102.601 27.55C102.581 27.55 102.551 27.56 102.511 27.58C102.491 27.58 102.471 27.58 102.451 27.58C102.371 27.62 102.281 27.66 102.181 27.7C102.081 27.72 101.981 27.75 101.881 27.79C101.681 27.87 101.471 27.93 101.251 27.97C101.051 27.99 100.841 28.02 100.621 28.06C100.521 28.08 100.411 28.11 100.291 28.15C100.171 28.19 100.061 28.24 99.9605 28.3C99.8805 28.36 99.8205 28.42 99.7805 28.48C99.6405 28.66 99.5705 28.84 99.5705 29.02C99.5705 29.16 99.6405 29.34 99.7805 29.56C99.8205 29.58 99.8605 29.61 99.9005 29.65C99.9605 29.67 100.021 29.7 100.081 29.74L100.231 29.8C100.491 29.82 100.631 29.84 100.651 29.86C100.671 29.86 100.791 29.85 101.011 29.83C101.871 29.71 102.391 29.22 102.571 28.36C102.611 28.24 102.631 28.13 102.631 28.03C102.631 27.97 102.641 27.93 102.661 27.91ZM137.913 31.99C137.913 32.19 137.923 32.41 137.943 32.65C137.963 32.89 137.953 33.12 137.913 33.34C137.913 33.36 137.903 33.38 137.883 33.4C137.883 33.4 137.883 33.42 137.883 33.46C137.863 33.52 137.813 33.59 137.733 33.67C137.673 33.75 137.603 33.82 137.523 33.88C137.503 34.28 137.483 34.68 137.463 35.08C137.463 35.48 137.443 35.88 137.403 36.28C137.403 36.46 137.423 36.65 137.463 36.85C137.503 37.07 137.453 37.24 137.313 37.36C137.193 37.44 137.143 37.34 137.163 37.06C137.203 36.8 137.213 36.6 137.193 36.46C137.173 36.24 137.163 36.03 137.163 35.83C137.163 35.63 137.153 35.43 137.133 35.23C137.113 35.35 137.103 35.41 137.103 35.41C137.103 35.41 137.103 35.43 137.103 35.47C137.103 35.51 137.063 35.66 136.983 35.92C136.963 36 136.943 36.12 136.923 36.28C136.903 36.46 136.883 36.51 136.863 36.43C136.803 36.13 136.773 35.82 136.773 35.5C136.793 35.2 136.783 34.89 136.743 34.57C136.743 34.57 136.733 34.57 136.713 34.57C136.713 34.57 136.713 34.58 136.713 34.6C136.673 34.64 136.633 34.69 136.593 34.75C136.553 34.81 136.513 34.87 136.473 34.93C136.473 34.95 136.453 35 136.413 35.08C136.353 35.16 136.293 35.24 136.233 35.32C136.193 35.42 136.133 35.51 136.053 35.59C135.933 35.71 135.843 35.79 135.783 35.83C135.703 36.01 135.623 36.25 135.543 36.55C135.463 36.85 135.303 37.02 135.063 37.06C134.923 37.08 134.843 37.03 134.823 36.91C134.803 36.79 134.803 36.65 134.823 36.49C134.843 36.33 134.843 36.21 134.823 36.13C134.803 36.09 134.773 36.06 134.733 36.04C134.713 36.04 134.703 36.05 134.703 36.07C134.663 36.19 134.663 36.36 134.703 36.58C134.743 36.8 134.703 36.89 134.583 36.85C134.443 36.77 134.343 36.68 134.283 36.58C134.283 36.58 134.273 36.55 134.253 36.49C134.253 36.45 134.233 36.42 134.193 36.4C134.133 36.32 134.073 36.23 134.013 36.13C133.953 36.05 133.893 35.97 133.833 35.89L133.473 35.44L133.383 35.35C133.283 35.25 133.163 35.1 133.023 34.9C132.883 34.72 132.743 34.55 132.603 34.39L132.543 34.33C132.503 34.29 132.423 34.23 132.303 34.15C132.283 34.15 132.253 34.17 132.213 34.21C132.113 34.21 132.063 34.22 132.063 34.24C132.023 34.4 132.003 34.57 132.003 34.75C132.003 34.93 131.983 35.11 131.943 35.29C131.903 35.33 131.863 35.33 131.823 35.29C131.763 35.25 131.703 35.15 131.643 34.99C131.603 34.85 131.573 34.76 131.553 34.72C131.513 34.58 131.473 34.43 131.433 34.27C131.413 34.13 131.383 33.99 131.343 33.85C131.303 33.81 131.283 33.79 131.283 33.79C131.263 33.77 131.243 33.75 131.223 33.73C131.203 33.71 131.183 33.69 131.163 33.67C131.123 33.63 131.103 33.59 131.103 33.55C131.083 33.53 131.073 33.5 131.073 33.46C131.053 33.46 131.043 33.46 131.043 33.46C131.043 33.44 131.043 33.43 131.043 33.43C131.003 33.27 130.983 33.1 130.983 32.92C131.003 32.74 131.013 32.58 131.013 32.44V25.3C131.013 25.14 131.003 24.97 130.983 24.79C130.983 24.61 130.963 24.45 130.923 24.31C130.923 24.29 130.913 24.27 130.893 24.25C130.893 24.21 130.873 24.15 130.833 24.07L130.743 23.89C130.703 23.85 130.653 23.81 130.593 23.77C130.553 23.71 130.503 23.67 130.443 23.65C130.443 23.63 130.433 23.62 130.413 23.62C130.373 23.62 130.333 23.64 130.293 23.68C130.253 23.72 130.213 23.75 130.173 23.77C129.933 23.89 129.823 24.02 129.843 24.16C129.863 24.3 129.903 24.47 129.963 24.67C130.023 24.87 129.973 25.12 129.813 25.42C129.813 25.42 129.763 25.4 129.663 25.36C129.603 25.3 129.563 25.25 129.543 25.21C129.523 24.99 129.503 24.77 129.483 24.55C129.483 24.33 129.463 24.11 129.423 23.89C129.363 23.87 129.333 23.83 129.333 23.77H129.303C129.163 23.73 129.083 23.72 129.063 23.74C128.923 23.86 128.803 24.06 128.703 24.34C128.683 24.42 128.663 24.52 128.643 24.64C128.643 24.76 128.643 24.87 128.643 24.97V32.05C128.643 32.25 128.653 32.46 128.673 32.68C128.693 32.9 128.683 33.12 128.643 33.34C128.643 33.34 128.633 33.37 128.613 33.43C128.613 33.47 128.613 33.48 128.613 33.46C128.593 33.5 128.573 33.54 128.553 33.58C128.533 33.62 128.503 33.66 128.463 33.7C128.423 33.74 128.373 33.79 128.313 33.85C128.253 33.89 128.223 33.91 128.223 33.91C128.203 34.09 128.183 34.27 128.163 34.45C128.163 34.63 128.143 34.81 128.103 34.99C128.103 35.19 128.073 35.38 128.013 35.56C128.013 35.58 127.993 35.59 127.953 35.59C127.933 35.59 127.923 35.58 127.923 35.56C127.883 35.52 127.843 35.37 127.803 35.11C127.763 34.85 127.733 34.71 127.713 34.69C127.713 34.65 127.703 34.61 127.683 34.57C127.683 34.55 127.683 34.53 127.683 34.51C127.643 34.55 127.613 34.57 127.593 34.57C127.553 34.49 127.533 34.43 127.533 34.39C127.453 34.47 127.373 34.56 127.293 34.66C127.233 34.76 127.173 34.87 127.113 34.99C127.033 35.09 126.963 35.19 126.903 35.29C126.843 35.39 126.783 35.49 126.723 35.59C126.643 35.69 126.573 35.79 126.513 35.89C126.453 36.01 126.373 36.12 126.273 36.22C126.173 36.34 126.063 36.45 125.943 36.55C125.823 36.65 125.713 36.76 125.613 36.88L125.373 37.12C125.333 37.2 125.273 37.29 125.193 37.39C125.133 37.51 125.053 37.6 124.953 37.66C124.933 37.74 124.913 37.82 124.893 37.9C124.893 37.98 124.873 38.07 124.833 38.17C124.813 38.21 124.793 38.25 124.773 38.29C124.773 38.35 124.753 38.4 124.713 38.44C124.673 38.46 124.623 38.42 124.563 38.32C124.523 38.26 124.483 38.15 124.443 37.99C124.423 37.91 124.413 37.83 124.413 37.75C124.413 37.69 124.393 37.62 124.353 37.54C124.393 37.58 124.373 37.56 124.293 37.48C124.233 37.4 124.183 37.35 124.143 37.33C124.123 37.29 124.103 37.25 124.083 37.21C124.063 37.19 124.033 37.16 123.993 37.12C123.853 36.88 123.743 36.65 123.663 36.43C123.583 36.27 123.513 36.1 123.453 35.92C123.393 35.74 123.323 35.56 123.243 35.38L123.153 35.17C123.073 35.01 122.993 34.87 122.913 34.75C122.853 34.65 122.773 34.53 122.673 34.39C122.533 34.23 122.363 34.09 122.163 33.97C121.983 33.83 121.853 33.65 121.773 33.43C121.753 33.33 121.743 33.22 121.743 33.1C121.743 32.96 121.743 32.83 121.743 32.71V24.82C121.743 24.74 121.733 24.67 121.713 24.61C121.713 24.55 121.703 24.49 121.683 24.43C121.683 24.39 121.673 24.36 121.653 24.34C121.653 24.32 121.653 24.3 121.653 24.28C121.633 24.22 121.603 24.16 121.563 24.1C121.543 24.02 121.513 23.96 121.473 23.92C121.353 23.78 121.233 23.68 121.113 23.62C121.073 23.62 121.013 23.63 120.933 23.65C120.873 23.65 120.833 23.65 120.813 23.65C120.813 23.67 120.803 23.68 120.783 23.68C120.763 23.84 120.743 24.01 120.723 24.19C120.723 24.37 120.703 24.55 120.663 24.73C120.643 24.77 120.593 24.81 120.513 24.85C120.453 24.89 120.413 24.88 120.393 24.82C120.353 24.66 120.343 24.5 120.363 24.34C120.403 24.18 120.373 24.01 120.273 23.83C120.253 23.83 120.243 23.83 120.243 23.83C120.243 23.81 120.233 23.8 120.213 23.8C120.293 23.88 120.333 23.94 120.333 23.98C120.333 24 120.233 23.91 120.033 23.71C120.033 23.69 119.993 23.68 119.913 23.68C119.893 23.8 119.893 23.93 119.913 24.07C119.953 24.21 119.923 24.33 119.823 24.43C119.743 24.49 119.723 24.43 119.763 24.25C119.803 24.07 119.773 23.94 119.673 23.86L119.583 23.95V23.98C119.563 24 119.523 24.07 119.463 24.19C119.463 24.21 119.453 24.23 119.433 24.25C119.433 24.27 119.433 24.29 119.433 24.31C119.393 24.47 119.363 24.64 119.343 24.82C119.343 24.98 119.343 25.14 119.343 25.3V32.59C119.343 32.67 119.343 32.77 119.343 32.89C119.363 32.99 119.363 33.09 119.343 33.19C119.343 33.31 119.333 33.4 119.313 33.46L119.223 33.61C119.203 33.65 119.173 33.69 119.133 33.73C119.113 33.75 119.083 33.78 119.043 33.82C118.963 33.9 118.913 33.96 118.893 34C118.833 34.1 118.763 34.2 118.683 34.3C118.603 34.42 118.513 34.52 118.413 34.6C118.373 34.64 118.333 34.67 118.293 34.69C118.153 34.75 118.023 34.73 117.903 34.63C117.803 34.55 117.703 34.47 117.603 34.39C117.603 34.45 117.593 34.49 117.573 34.51C117.553 34.53 117.493 34.52 117.393 34.48C117.293 34.46 117.233 34.45 117.213 34.45C116.933 34.39 116.693 34.43 116.493 34.57C116.413 34.65 116.333 34.73 116.253 34.81C116.173 34.89 116.093 34.97 116.013 35.05C115.893 35.17 115.763 35.27 115.623 35.35C115.503 35.45 115.393 35.56 115.293 35.68C115.273 35.7 115.213 35.76 115.113 35.86C115.033 35.96 114.933 36.08 114.813 36.22C114.733 36.3 114.693 36.33 114.693 36.31C114.653 36.01 114.633 35.71 114.633 35.41C114.633 35.11 114.613 34.81 114.573 34.51C114.553 34.53 114.523 34.55 114.483 34.57C114.443 34.59 114.403 34.61 114.363 34.63C114.343 34.65 114.313 34.66 114.273 34.66C114.253 34.66 114.233 34.67 114.213 34.69C114.193 34.73 114.173 34.78 114.153 34.84C114.153 34.92 114.133 34.98 114.093 35.02C114.073 35.04 114.023 35.01 113.943 34.93C113.863 34.85 113.823 34.81 113.823 34.81C113.743 34.73 113.673 34.65 113.613 34.57C113.573 34.49 113.513 34.41 113.433 34.33C113.433 34.41 113.413 34.46 113.373 34.48C113.333 34.5 113.303 34.47 113.283 34.39C113.283 34.31 113.273 34.26 113.253 34.24C113.233 34.2 113.213 34.16 113.193 34.12C113.173 34.08 113.153 34.05 113.133 34.03C113.113 34.01 113.063 34 112.983 34C112.963 34 112.943 34 112.923 34C112.923 33.98 112.903 33.97 112.863 33.97C112.703 33.91 112.573 33.81 112.473 33.67C112.433 33.63 112.393 33.55 112.353 33.43C112.313 33.29 112.293 33.13 112.293 32.95C112.313 32.77 112.323 32.61 112.323 32.47V19.81C112.323 19.71 112.313 19.61 112.293 19.51C112.293 19.39 112.303 19.28 112.323 19.18C112.323 19.1 112.343 19 112.383 18.88C112.423 18.8 112.453 18.75 112.473 18.73C112.513 18.69 112.543 18.66 112.563 18.64C112.663 18.52 112.833 18.44 113.073 18.4C113.233 18.38 113.383 18.38 113.523 18.4C113.683 18.4 113.833 18.4 113.973 18.4H117.483C117.563 18.38 117.633 18.37 117.693 18.37C117.773 18.37 117.853 18.37 117.933 18.37C117.973 18.37 118.013 18.38 118.053 18.4C118.113 18.4 118.163 18.4 118.203 18.4C118.403 18.42 118.563 18.51 118.683 18.67C118.823 18.81 118.893 18.99 118.893 19.21C118.913 19.31 118.913 19.41 118.893 19.51C118.893 19.61 118.893 19.71 118.893 19.81V20.2C118.933 20.16 118.953 20.13 118.953 20.11C118.973 20.11 118.983 20.11 118.983 20.11C118.983 20.09 118.983 20.08 118.983 20.08L119.223 19.81C119.303 19.73 119.383 19.66 119.463 19.6C119.563 19.52 119.653 19.44 119.733 19.36C119.773 19.32 119.803 19.29 119.823 19.27C119.863 19.25 119.903 19.23 119.943 19.21C119.943 19.21 120.003 19.17 120.123 19.09C120.243 18.99 120.313 18.93 120.333 18.91C120.353 18.91 120.403 18.88 120.483 18.82C120.643 18.72 120.803 18.64 120.963 18.58C121.123 18.52 121.293 18.46 121.473 18.4C121.713 18.32 121.963 18.26 122.223 18.22C122.503 18.16 122.783 18.12 123.063 18.1H123.213C123.513 18.08 123.763 18.08 123.963 18.1C124.023 18.1 124.083 18.11 124.143 18.13C124.203 18.13 124.263 18.14 124.323 18.16C125.983 18.34 127.143 19.14 127.803 20.56L127.983 20.32C128.023 20.26 128.063 20.2 128.103 20.14C128.163 20.08 128.213 20.03 128.253 19.99L128.613 19.63C129.053 19.23 129.533 18.89 130.053 18.61C130.153 18.55 130.263 18.5 130.383 18.46C130.503 18.42 130.623 18.39 130.743 18.37C131.283 18.19 131.833 18.1 132.393 18.1C133.033 18.1 133.633 18.19 134.193 18.37C134.753 18.53 135.263 18.79 135.723 19.15C135.823 19.21 135.913 19.28 135.993 19.36C136.073 19.42 136.153 19.5 136.233 19.6C136.393 19.74 136.533 19.9 136.653 20.08C136.773 20.26 136.893 20.45 137.013 20.65C137.093 20.73 137.143 20.8 137.163 20.86C137.303 21.04 137.413 21.28 137.493 21.58C137.573 21.86 137.643 22.17 137.703 22.51C137.723 22.57 137.733 22.63 137.733 22.69C137.733 22.75 137.743 22.81 137.763 22.87C137.803 23.15 137.833 23.46 137.853 23.8C137.893 24.12 137.913 24.45 137.913 24.79V25.27C137.913 25.49 137.913 25.84 137.913 26.32C137.913 26.8 137.913 27.32 137.913 27.88C137.913 28.44 137.913 28.96 137.913 29.44C137.913 29.92 137.913 30.27 137.913 30.49V31.99ZM157.487 25.72C157.507 26.04 157.507 26.36 157.487 26.68C157.487 27 157.477 27.31 157.457 27.61C157.417 28.23 157.327 28.81 157.187 29.35C157.047 29.87 156.847 30.35 156.587 30.79C156.507 30.93 156.427 31.07 156.347 31.21C156.267 31.35 156.177 31.49 156.077 31.63C155.977 31.75 155.867 31.86 155.747 31.96C155.747 31.98 155.737 32 155.717 32.02C155.637 32.14 155.537 32.24 155.417 32.32C155.397 32.34 155.377 32.36 155.357 32.38C155.337 32.4 155.307 32.43 155.267 32.47C155.247 32.49 155.227 32.51 155.207 32.53C155.187 32.55 155.167 32.57 155.147 32.59L154.967 32.98C154.967 33.06 154.967 33.14 154.967 33.22C154.967 33.28 154.957 33.35 154.937 33.43C154.917 33.57 154.917 33.76 154.937 34C154.957 34.22 154.917 34.29 154.817 34.21C154.757 34.15 154.717 34.08 154.697 34C154.697 33.9 154.697 33.81 154.697 33.73C154.697 33.77 154.677 33.81 154.637 33.85C154.617 33.91 154.577 33.97 154.517 34.03C154.477 34.11 154.417 34.16 154.337 34.18C154.197 34.24 154.077 34.19 153.977 34.03C153.897 33.89 153.837 33.78 153.797 33.7C153.797 33.68 153.787 33.66 153.767 33.64C153.627 33.9 153.567 34.19 153.587 34.51C153.607 34.85 153.597 35.18 153.557 35.5C153.557 35.58 153.547 35.67 153.527 35.77C153.507 35.89 153.487 36 153.467 36.1C153.447 36.22 153.397 36.33 153.317 36.43C153.317 36.49 153.277 36.52 153.197 36.52C153.117 36.48 153.077 36.43 153.077 36.37C153.037 36.03 153.017 35.68 153.017 35.32C153.017 34.96 152.997 34.61 152.957 34.27C152.957 34.27 152.947 34.26 152.927 34.24C152.927 34.24 152.917 34.24 152.897 34.24C152.837 34.26 152.777 34.29 152.717 34.33C152.657 34.37 152.607 34.41 152.567 34.45C152.427 34.59 152.307 34.76 152.207 34.96C152.147 35.08 152.087 35.2 152.027 35.32C151.987 35.44 151.937 35.55 151.877 35.65C151.857 35.67 151.827 35.71 151.787 35.77C151.767 35.85 151.757 35.88 151.757 35.86C151.717 35.64 151.697 35.42 151.697 35.2C151.697 34.98 151.677 34.77 151.637 34.57C151.677 34.57 151.617 34.56 151.457 34.54C151.317 34.54 151.257 34.55 151.277 34.57C151.237 34.89 151.217 35.21 151.217 35.53C151.217 35.85 151.197 36.17 151.157 36.49C151.157 36.51 151.117 36.55 151.037 36.61C150.977 36.67 150.937 36.71 150.917 36.73C150.897 36.75 150.867 36.76 150.827 36.76C150.807 36.78 150.797 36.78 150.797 36.76C150.757 36.42 150.737 36.07 150.737 35.71C150.737 35.37 150.707 35.03 150.647 34.69C150.587 34.71 150.537 34.74 150.497 34.78C150.457 34.82 150.437 34.84 150.437 34.84C150.417 34.86 150.397 34.89 150.377 34.93C150.377 34.99 150.357 35.04 150.317 35.08C150.297 35.08 150.247 35.04 150.167 34.96C150.147 34.92 150.127 34.88 150.107 34.84C150.107 34.8 150.087 34.77 150.047 34.75C150.047 34.73 150.037 34.72 150.017 34.72C149.997 34.7 149.987 34.69 149.987 34.69C149.987 34.71 149.977 34.71 149.957 34.69H149.777C149.777 34.77 149.777 34.85 149.777 34.93C149.777 35.01 149.757 35.1 149.717 35.2C149.717 35.2 149.637 35.11 149.477 34.93C149.377 34.83 149.327 34.78 149.327 34.78C149.327 34.8 149.297 34.8 149.237 34.78C149.157 34.78 149.117 34.77 149.117 34.75C149.097 35.03 149.077 35.3 149.057 35.56C149.057 35.84 149.037 36.12 148.997 36.4C148.997 36.44 148.977 36.42 148.937 36.34C148.917 36.26 148.897 36.2 148.877 36.16C148.857 36.1 148.837 36.04 148.817 35.98C148.797 35.94 148.777 35.89 148.757 35.83C148.697 35.57 148.647 35.31 148.607 35.05C148.587 34.81 148.557 34.56 148.517 34.3H148.337C145.617 34.24 143.567 33.61 142.187 32.41L142.007 32.23C140.827 31.11 140.177 29.57 140.057 27.61C139.997 26.67 139.997 25.73 140.057 24.79C140.217 22.57 141.057 20.9 142.577 19.78C144.117 18.66 146.217 18.1 148.877 18.1H149.147C149.427 18.1 149.707 18.11 149.987 18.13C150.267 18.15 150.537 18.18 150.797 18.22C150.837 18.22 150.867 18.23 150.887 18.25C152.947 18.55 154.597 19.33 155.837 20.59C155.877 20.63 155.927 20.7 155.987 20.8C156.067 20.88 156.117 20.94 156.137 20.98C156.697 21.72 157.077 22.55 157.277 23.47C157.277 23.49 157.277 23.51 157.277 23.53C157.297 23.55 157.307 23.57 157.307 23.59C157.387 23.93 157.437 24.29 157.457 24.67C157.477 25.03 157.487 25.38 157.487 25.72ZM147.947 29.29C148.007 29.33 148.077 29.37 148.157 29.41C148.377 29.47 148.547 29.5 148.667 29.5C148.787 29.5 148.907 29.49 149.027 29.47H149.207C149.287 29.43 149.357 29.4 149.417 29.38C149.497 29.34 149.567 29.3 149.627 29.26C149.787 29.1 149.887 28.91 149.927 28.69C149.987 28.47 150.027 28.26 150.047 28.06C150.067 27.94 150.077 27.81 150.077 27.67C150.097 27.53 150.107 27.39 150.107 27.25C150.127 26.97 150.137 26.64 150.137 26.26C150.137 25.88 150.127 25.54 150.107 25.24C150.107 25.14 150.107 25.04 150.107 24.94C150.107 24.84 150.097 24.75 150.077 24.67C150.077 24.59 150.067 24.52 150.047 24.46C150.047 24.38 150.047 24.3 150.047 24.22C149.987 23.7 149.847 23.35 149.627 23.17C149.547 23.09 149.487 23.05 149.447 23.05C149.427 23.03 149.397 23.02 149.357 23.02C149.337 23.02 149.317 23.02 149.297 23.02C149.277 23 149.257 23 149.237 23.02C149.217 23.04 149.197 23.09 149.177 23.17C149.177 23.23 149.157 23.28 149.117 23.32C149.097 23.36 149.037 23.39 148.937 23.41C148.857 23.41 148.797 23.4 148.757 23.38C148.637 23.36 148.527 23.3 148.427 23.2H148.247C148.227 23.18 148.207 23.16 148.187 23.14C148.167 23.1 148.137 23.07 148.097 23.05C148.037 23.05 147.977 23.08 147.917 23.14C147.777 23.26 147.677 23.43 147.617 23.65C147.557 23.85 147.507 24.09 147.467 24.37C147.447 24.43 147.437 24.51 147.437 24.61C147.437 24.67 147.427 24.74 147.407 24.82C147.407 24.88 147.407 24.95 147.407 25.03C147.387 25.19 147.377 25.38 147.377 25.6C147.377 25.82 147.377 26.04 147.377 26.26C147.377 26.4 147.377 26.54 147.377 26.68C147.397 26.8 147.407 26.93 147.407 27.07C147.407 27.21 147.407 27.35 147.407 27.49C147.407 27.63 147.417 27.75 147.437 27.85C147.477 28.21 147.517 28.49 147.557 28.69C147.617 28.89 147.747 29.09 147.947 29.29Z" fill="white"/>
<path d="M175.01 35V13.4H178.79V35H175.01ZM185.75 35V25.34C185.75 24.4 185.51 23.69 185.03 23.21C184.55 22.73 183.85 22.49 182.93 22.49C182.13 22.49 181.41 22.67 180.77 23.03C180.15 23.39 179.66 23.89 179.3 24.53C178.96 25.17 178.79 25.91 178.79 26.75L178.4 23.09C178.92 21.97 179.68 21.08 180.68 20.42C181.68 19.74 182.88 19.4 184.28 19.4C185.94 19.4 187.23 19.87 188.15 20.81C189.09 21.75 189.56 23 189.56 24.56V35H185.75ZM197.978 35.3C196.918 35.3 195.998 35.08 195.218 34.64C194.458 34.18 193.868 33.56 193.448 32.78C193.048 32 192.848 31.12 192.848 30.14V19.7H196.628V29.36C196.628 30.3 196.858 31.01 197.318 31.49C197.798 31.97 198.468 32.21 199.328 32.21C200.108 32.21 200.788 32.03 201.368 31.67C201.968 31.31 202.438 30.81 202.778 30.17C203.138 29.51 203.318 28.77 203.318 27.95L203.708 31.61C203.208 32.73 202.458 33.63 201.458 34.31C200.478 34.97 199.318 35.3 197.978 35.3ZM203.438 35V31.4H203.318V19.7H207.128V35H203.438ZM219.863 35.3C218.403 35.3 217.203 34.96 216.263 34.28C215.343 33.58 214.773 32.62 214.553 31.4L214.823 31.37V35H211.133V13.4H214.913V23.15L214.643 23.09C214.903 21.95 215.513 21.05 216.473 20.39C217.453 19.73 218.663 19.4 220.103 19.4C221.463 19.4 222.643 19.73 223.643 20.39C224.663 21.03 225.453 21.94 226.013 23.12C226.573 24.3 226.853 25.69 226.853 27.29C226.853 28.91 226.563 30.32 225.983 31.52C225.403 32.72 224.593 33.65 223.553 34.31C222.513 34.97 221.283 35.3 219.863 35.3ZM218.903 32.18C220.123 32.18 221.093 31.76 221.813 30.92C222.533 30.06 222.893 28.86 222.893 27.32C222.893 25.78 222.523 24.59 221.783 23.75C221.063 22.91 220.093 22.49 218.873 22.49C217.673 22.49 216.703 22.92 215.963 23.78C215.223 24.62 214.853 25.81 214.853 27.35C214.853 28.89 215.223 30.08 215.963 30.92C216.703 31.76 217.683 32.18 218.903 32.18Z" fill="black"/>
<path d="M0 16.1379C0 29.5437 11.2547 36.6907 19.4933 43.0864C22.401 45.3453 25.2005 47.467 28 47.467C30.7995 47.467 33.599 45.3402 36.5067 43.0864C44.7454 36.6907 56 29.5487 56 16.1379C56 2.72714 40.6003 -6.78022 28 6.10775C15.3997 -6.78022 0 2.72714 0 16.1379Z" fill="#FF9102"/>
<path d="M37.0996 27.828C36.6975 27.366 35.6767 26.63 35.1714 26.2443C34.7744 25.9245 30.5262 22.4728 29.8921 21.955C29.3662 21.4474 28.9641 20.4678 29.1291 19.6759C29.2013 19.346 29.3662 18.9754 29.5312 18.6252C29.6962 18.2749 29.8715 17.9653 29.9694 17.7876C30.0725 17.61 30.0777 17.5846 30.2014 17.6861C30.6912 18.0567 31.5883 18.5693 32.0626 18.8282C32.5833 19.1277 33.3567 19.0059 33.7536 18.5846C34.2022 18.1937 33.9599 17.3917 34.1712 16.9196C34.2537 16.7775 34.4032 16.6912 34.5064 16.6151C34.7744 16.412 34.5167 15.9247 34.5373 15.6354C34.5424 15.473 34.6352 15.4121 34.7744 15.3664C35.9654 15.1126 34.7693 13.7421 34.5579 13.3004C34.4136 12.8639 34.4909 12.3157 34.4548 11.8538C34.4084 11.3259 34.9085 11.0518 34.9807 10.5696C35.1044 9.32593 34.826 8.83864 34.7177 8.42241C34.2692 7.3869 33.1814 6.88438 31.8358 6.53921C31.2016 6.36662 30.7015 6.33617 30.0313 6.29048C26.7317 6.16866 24.9634 6.07222 23.3033 7.90465C21.7102 9.68125 21.8597 12.3766 21.6225 14.539C21.5916 15.2852 21.4524 15.9907 21.0812 16.6963C20.9214 16.9958 20.7358 17.2191 20.4935 17.4272C19.7871 18.0668 17.8847 19.8992 16.8897 20.8586C15.8741 21.8484 14.8997 22.9804 14.8533 24.4423C14.745 26.2646 15.2399 28.0056 16.8124 29.0614C17.1372 29.3152 17.5032 29.6401 17.9105 29.7365C18.0033 29.7467 18.06 29.7162 18.0755 29.6452C18.0755 29.2137 17.6476 28.7518 17.5599 28.2747C17.2506 27.3762 17.1578 26.3864 17.6321 25.6098C17.7507 25.8331 17.6837 26.3508 17.7971 26.6605C17.9518 27.3254 18.5498 27.7569 19.0035 28.3C19.6428 29.0716 20.3027 29.3457 20.1274 30.234C19.7407 31.3609 19.0911 33.1476 18.6735 34.3202C18.3591 35.1425 18.1477 36.0359 18.4415 36.914C18.7303 37.4774 18.988 37.5181 19.7201 38.3302C20.38 39.0053 21.0864 39.716 21.6689 40.3099C21.9473 40.5738 22.0659 40.8682 21.87 41.2946C21.6277 41.8174 20.4213 43.075 20.4935 43.6536C20.6224 44.415 24.9066 46.7361 26.4997 47.863C26.6389 47.9492 26.6905 48 26.8245 48C27.3968 47.9695 29.8354 47.2728 31.1913 46.6992C31.5316 46.552 32.9391 45.7754 32.9958 45.4302C33.3618 43.8161 34.4342 38.9038 34.96 36.244C35.2642 34.7263 35.3055 34.4775 35.3209 33.2238C35.3673 32.4471 36.0737 32.2644 36.5944 31.6959C37.8059 30.7162 38.0534 29.0462 37.1254 27.8635L37.0893 27.8178L37.0996 27.828ZM26.6441 36.7364C25.2211 39.6703 22.9991 39.7769 22.0969 36.376C21.9113 35.376 22.2979 34.5029 22.6537 33.5385C23.2826 31.9649 24.1746 29.7213 24.685 28.5995C24.8499 28.3203 24.9788 27.8584 25.3191 27.8736C25.8295 28.234 25.9223 28.9701 26.1955 29.5944C26.9431 31.7771 27.7319 34.5029 26.6905 36.6399L26.6441 36.7364Z" fill="white"/>
</svg>
